HIERARCHY
ROOT Hips
{
  OFFSET 5.84602e-005 68.8428 3.50346
  CHANNELS 6 Xposition Yposition Zposition Zrotation Xrotation Yrotation
  JOINT Spine
  {
    OFFSET 0 8.597 -4.6522
    CHANNELS 3 Zrotation Xrotation Yrotation
    JOINT Spine1
    {
      OFFSET 0 7.8454 0.4098
      CHANNELS 3 Zrotation Xrotation Yrotation
      JOINT Spine2
      {
        OFFSET 0 9.7078 -2.1609
        CHANNELS 3 Zrotation Xrotation Yrotation
        JOINT Neck
        {
          OFFSET 0 21.8761 -0.4549
          CHANNELS 3 Zrotation Xrotation Yrotation
          JOINT Head
          {
            OFFSET 0 12.3537 3.3602
            CHANNELS 3 Zrotation Xrotation Yrotation
            End Site
            {
              OFFSET 0.0001 18.9506 0.5657
            }
          }
        }
        JOINT LeftShoulder
        {
          OFFSET 2.2086 21.1115 7.2329
          CHANNELS 3 Zrotation Xrotation Yrotation
          JOINT LeftArm
          {
            OFFSET 13.1193 3.0282 -4.8998
            CHANNELS 3 Zrotation Xrotation Yrotation
            JOINT LeftForeArm
            {
              OFFSET 27.4081 -0.0973053 -0.2375
              CHANNELS 3 Zrotation Xrotation Yrotation
              JOINT LeftHand
              {
                OFFSET 22.8641 0.0662994 -0.1369
                CHANNELS 3 Zrotation Xrotation Yrotation
                JOINT LeftHandIndex1
                {
                  OFFSET 8.8614 0.775009 2.4612
                  CHANNELS 3 Zrotation Xrotation Yrotation
                  JOINT LeftHandIndex2
                  {
                    OFFSET 3.3146 -0.808304 0.5841
                    CHANNELS 3 Zrotation Xrotation Yrotation
                    JOINT LeftHandIndex3
                    {
                      OFFSET 2.2628 -0.552002 0.3989
                      CHANNELS 3 Zrotation Xrotation Yrotation
                      End Site
                      {
                        OFFSET 1.6102 -0.4807 0.2612
                      }
                    }
                  }
                }
                JOINT LeftHandMiddle1
                {
                  OFFSET 8.9937 0.895004 0.2143
                  CHANNELS 3 Zrotation Xrotation Yrotation
                  JOINT LeftHandMiddle2
                  {
                    OFFSET 4.0984 0.0113983 -0.0242
                    CHANNELS 3 Zrotation Xrotation Yrotation
                    JOINT LeftHandMiddle3
                    {
                      OFFSET 2.2716 0.00689697 -0.0138001
                      CHANNELS 3 Zrotation Xrotation Yrotation
                      End Site
                      {
                        OFFSET 2.0404 -0.1441 0.0027
                      }
                    }
                  }
                }
                JOINT LeftHandRing1
                {
                  OFFSET 8.5234 0.597198 -2.0164
                  CHANNELS 3 Zrotation Xrotation Yrotation
                  JOINT LeftHandRing2
                  {
                    OFFSET 3.7188 -0.188293 -0.2328
                    CHANNELS 3 Zrotation Xrotation Yrotation
                    JOINT LeftHandRing3
                    {
                      OFFSET 2.1191 -0.106598 -0.1332
                      CHANNELS 3 Zrotation Xrotation Yrotation
                      End Site
                      {
                        OFFSET 1.8737 -0.2304 -0.0886
                      }
                    }
                  }
                }
                JOINT LeftHandPinky1
                {
                  OFFSET 7.9094 -0.601089 -3.4825
                  CHANNELS 3 Zrotation Xrotation Yrotation
                  JOINT LeftHandPinky2
                  {
                    OFFSET 2.2874 -0.477005 -0.6314
                    CHANNELS 3 Zrotation Xrotation Yrotation
                    JOINT LeftHandPinky3
                    {
                      OFFSET 1.6774 -0.349396 -0.4633
                      CHANNELS 3 Zrotation Xrotation Yrotation
                      End Site
                      {
                        OFFSET 1.4888 -0.4091 -0.3416
                      }
                    }
                  }
                }
                JOINT LeftHandThumb1
                {
                  OFFSET 1.833 -1.3875 1.3896
                  CHANNELS 3 Zrotation Xrotation Yrotation
                  JOINT LeftHandThumb2
                  {
                    OFFSET 3.4129 -1.121 2.5732
                    CHANNELS 3 Zrotation Xrotation Yrotation
                    JOINT LeftHandThumb3
                    {
                      OFFSET 2.2474 -0.804199 1.6192
                      CHANNELS 3 Zrotation Xrotation Yrotation
                      End Site
                      {
                        OFFSET 1.6527 -0.5689 1.1317
                      }
                    }
                  }
                }
              }
            }
          }
        }
        JOINT RightShoulder
        {
          OFFSET -2.2086 21.1115 7.2329
          CHANNELS 3 Zrotation Xrotation Yrotation
          JOINT RightArm
          {
            OFFSET -13.1216 3.0287 -4.9007
            CHANNELS 3 Zrotation Xrotation Yrotation
            JOINT RightForeArm
            {
              OFFSET -27.4081 -0.0973053 -0.2375
              CHANNELS 3 Zrotation Xrotation Yrotation
              JOINT RightHand
              {
                OFFSET -22.8641 0.0664063 -0.1369
                CHANNELS 3 Zrotation Xrotation Yrotation
                JOINT RightHandIndex1
                {
                  OFFSET -8.8614 0.774994 2.4612
                  CHANNELS 3 Zrotation Xrotation Yrotation
                  JOINT RightHandIndex2
                  {
                    OFFSET -3.3146 -0.808304 0.5841
                    CHANNELS 3 Zrotation Xrotation Yrotation
                    JOINT RightHandIndex3
                    {
                      OFFSET -2.2628 -0.552002 0.3989
                      CHANNELS 3 Zrotation Xrotation Yrotation
                      End Site
                      {
                        OFFSET -1.6102 -0.4807 0.2612
                      }
                    }
                  }
                }
                JOINT RightHandMiddle1
                {
                  OFFSET -8.9937 0.894989 0.2143
                  CHANNELS 3 Zrotation Xrotation Yrotation
                  JOINT RightHandMiddle2
                  {
                    OFFSET -4.0984 0.0113983 -0.0242
                    CHANNELS 3 Zrotation Xrotation Yrotation
                    JOINT RightHandMiddle3
                    {
                      OFFSET -2.2716 0.00691223 -0.0138001
                      CHANNELS 3 Zrotation Xrotation Yrotation
                      End Site
                      {
                        OFFSET -2.0404 -0.1441 0.0027
                      }
                    }
                  }
                }
                JOINT RightHandRing1
                {
                  OFFSET -8.5234 0.597198 -2.0164
                  CHANNELS 3 Zrotation Xrotation Yrotation
                  JOINT RightHandRing2
                  {
                    OFFSET -3.7188 -0.188309 -0.2328
                    CHANNELS 3 Zrotation Xrotation Yrotation
                    JOINT RightHandRing3
                    {
                      OFFSET -2.1191 -0.106598 -0.1332
                      CHANNELS 3 Zrotation Xrotation Yrotation
                      End Site
                      {
                        OFFSET -1.8737 -0.2304 -0.0886
                      }
                    }
                  }
                }
                JOINT RightHandPinky1
                {
                  OFFSET -7.9094 -0.601105 -3.4825
                  CHANNELS 3 Zrotation Xrotation Yrotation
                  JOINT RightHandPinky2
                  {
                    OFFSET -2.2874 -0.477005 -0.6314
                    CHANNELS 3 Zrotation Xrotation Yrotation
                    JOINT RightHandPinky3
                    {
                      OFFSET -1.6774 -0.349396 -0.4633
                      CHANNELS 3 Zrotation Xrotation Yrotation
                      End Site
                      {
                        OFFSET -1.4888 -0.4091 -0.3416
                      }
                    }
                  }
                }
                JOINT RightHandThumb1
                {
                  OFFSET -1.833 -1.38751 1.3896
                  CHANNELS 3 Zrotation Xrotation Yrotation
                  JOINT RightHandThumb2
                  {
                    OFFSET -3.41299 -1.12099 2.5732
                    CHANNELS 3 Zrotation Xrotation Yrotation
                    JOINT RightHandThumb3
                    {
                      OFFSET -2.24741 -0.804108 1.6192
                      CHANNELS 3 Zrotation Xrotation Yrotation
                      End Site
                      {
                        OFFSET -1.6527 -0.5689 1.1317
                      }
                    }
                  }
                }
              }
            }
          }
        }
      }
    }
  }
  JOINT RightUpLeg
  {
    OFFSET -9.1966 3.8861 -0.7581
    CHANNELS 3 Zrotation Xrotation Yrotation
    JOINT RightLeg
    {
      OFFSET -0.7359 -41.0265 0
      CHANNELS 3 Zrotation Xrotation Yrotation
      JOINT RightFoot
      {
        OFFSET 0 -40.2855 0
        CHANNELS 3 Zrotation Xrotation Yrotation
        JOINT RightToeBase
        {
          OFFSET 0 -5.6122 11.7359
          CHANNELS 3 Zrotation Xrotation Yrotation
          End Site
          {
            OFFSET 0 0 7.8731
          }
        }
      }
    }
  }
  JOINT LeftUpLeg
  {
    OFFSET 9.1965 3.8864 -0.7581
    CHANNELS 3 Zrotation Xrotation Yrotation
    JOINT LeftLeg
    {
      OFFSET 0.7359 -41.0268 0
      CHANNELS 3 Zrotation Xrotation Yrotation
      JOINT LeftFoot
      {
        OFFSET 0 -40.2855 0
        CHANNELS 3 Zrotation Xrotation Yrotation
        JOINT LeftToeBase
        {
          OFFSET 0 -5.6122 11.7359
          CHANNELS 3 Zrotation Xrotation Yrotation
          End Site
          {
            OFFSET 0 0 7.8731
          }
        }
      }
    }
  }
}
MOTION
Frames:	5
Frame Time:	0.0333333
39.7392 16.9064 23.3141 2.28811e-014 65.274 1e-006 -0.327325 16.2479 -0.0873391 -0.67094 32.4959 -0.0781703 -0.67094 32.4959 -0.0781699 -11.091 -29.7325 40.6877 15.373 -18.8012 23.5729 -7.16835 -6.03206 -4.58943 -79.6095 -13.0178 -83.2023 45.7936 71.6798 -98.2879 -70.3165 -2.16964 -33.5523 -5.1684e-015 1.59028e-015 -3.18055e-015 -7.95139e-015 -3.18055e-015 6.36111e-015 -1.98785e-015 3.18055e-015 3.18055e-015 -5.1684e-015 1.59028e-015 -3.18055e-015 -0.0146254 -8.9021e-005 -1.93762e-006 3.18055e-015 0 -6.36111e-015 -5.1684e-015 1.59028e-015 -3.18055e-015 -0.0187969 -0.00117872 5.95828e-005 3.57812e-015 -3.18055e-015 -0 -5.1684e-015 1.59028e-015 -3.18055e-015 -0.0123318 -0.00326516 0.000686784 -3.57812e-015 1.59028e-015 3.18055e-015 -5.1684e-015 1.59028e-015 -3.18055e-015 -7.95139e-015 -3.18055e-015 6.36111e-015 -1.98785e-015 3.18055e-015 3.18055e-015 7.72739 -6.67832 8.43062 79.5751 -13.1122 83.1718 -46.2559 73.0919 93.1758 68.5092 0.19755 33.8299 6.36111e-015 0 3.18055e-015 -8.22957e-007 -1.89191e-007 1.08611e-007 8.35702e-007 1.39774e-007 -9.30312e-008 6.36111e-015 0 3.18055e-015 0.0150308 -9.15835e-005 -6.16833e-007 1.43125e-014 7.95139e-015 -6.36111e-015 6.36111e-015 0 3.18055e-015 0.0189958 -0.00119302 -5.68807e-005 -7.15625e-015 1.59028e-015 -3.18055e-015 6.36111e-015 0 3.18055e-015 0.0123192 -0.00326064 -0.000681611 8.37254e-007 1.39357e-007 -9.31561e-008 6.36111e-015 0 3.18055e-015 -8.22957e-007 -1.89191e-007 1.08611e-007 8.35702e-007 1.39774e-007 -9.30312e-008 167.595 -73.7112 168.735 -177.275 24.2258 168.517 13.4064 -15.915 19.1436 -8.66113e-007 1.3435e-007 1.90819e-006 -167.553 -73.7091 -168.695 177.289 24.2195 -168.531 -13.4102 -15.9104 -19.1463 -7.95139e-016 -7.95139e-016 1.49089e-015 
39.7392 16.8883 23.2882 -6.1539e-014 65.0489 1e-006 -0.327513 16.3229 -0.0867923 -0.671826 32.646 -0.0763958 -0.671826 32.646 -0.0763955 -11.3546 -29.7594 40.5488 15.1927 -18.5734 23.4517 -7.16102 -6.01426 -4.58819 -79.6096 -13.0178 -83.2023 45.7735 71.6454 -98.4514 -70.3388 -2.35084 -33.4088 3.17216e-006 -7.34321e-007 -3.48066e-008 -1.31198e-014 0 -6.36111e-015 -1.60633e-007 -6.93909e-007 -2.252e-007 3.17216e-006 -7.34321e-007 -3.48066e-008 -0.0145698 -8.90362e-005 -1.20918e-007 7.98859e-007 -9.4897e-007 1.21873e-008 3.17216e-006 -7.34321e-007 -3.48066e-008 -0.0187296 -0.00117561 6.37897e-005 -1.60634e-007 -6.93873e-007 -2.25312e-007 3.17216e-006 -7.34321e-007 -3.48066e-008 -0.0123093 -0.00325604 0.000676344 7.98568e-007 -9.48575e-007 1.20986e-008 3.17216e-006 -7.34321e-007 -3.48066e-008 -1.31198e-014 0 -6.36111e-015 -1.60633e-007 -6.93909e-007 -2.252e-007 7.78059 -6.82775 8.25724 79.5751 -13.1122 83.1718 -46.2231 72.9809 93.6161 68.6284 -0.103685 33.6658 3.3543e-006 7.62291e-008 2.10167e-007 -3.3543e-006 -7.62291e-008 -2.10167e-007 3.3543e-006 7.62291e-008 2.10167e-007 3.3543e-006 7.62291e-008 2.10167e-007 0.0149949 -8.99189e-005 3.2507e-006 3.35417e-006 7.62572e-008 2.10154e-007 3.3543e-006 7.62291e-008 2.10167e-007 0.0189699 -0.00118949 -6.11606e-005 3.35414e-006 7.6276e-008 2.1012e-007 3.3543e-006 7.62291e-008 2.10167e-007 0.0123086 -0.00325846 -0.000676749 3.3542e-006 7.62999e-008 2.10069e-007 3.3543e-006 7.62291e-008 2.10167e-007 -3.3543e-006 -7.62291e-008 -2.10167e-007 3.3543e-006 7.62291e-008 2.10167e-007 167.593 -73.7149 168.733 -177.275 24.2292 168.517 13.4061 -15.9153 19.1435 -7.95139e-016 -3.97569e-015 -2.18663e-015 -167.551 -73.7129 -168.693 177.289 24.2229 -168.53 -13.41 -15.9108 -19.1462 -9.52701e-007 -9.9371e-008 8.49762e-007 
39.7392 16.8702 23.2623 -5.41268e-014 64.8237 1e-006 -0.327702 16.3979 -0.086246 -0.672719 32.796 -0.0746165 -0.67272 32.796 -0.0746164 -11.6183 -29.7859 40.4096 15.0132 -18.3452 23.3314 -7.1537 -5.99648 -4.58695 -79.6096 -13.0179 -83.2023 45.7533 71.6109 -98.6147 -70.3606 -2.53209 -33.2654 1.11427e-006 -1.98195e-007 -1.21852e-007 3.17159e-006 -7.35205e-007 -3.86712e-008 2.0803e-006 -4.37897e-007 1.15384e-007 1.11427e-006 -1.98195e-007 -1.21852e-007 -0.0146385 -9.02515e-005 4.58158e-007 2.08115e-006 -4.37907e-007 1.15326e-007 1.11427e-006 -1.98195e-007 -1.21852e-007 -0.0187396 -0.00117484 6.03294e-005 2.08139e-006 -4.37849e-007 1.15287e-007 1.11427e-006 -1.98195e-007 -1.21852e-007 -0.0122054 -0.00323349 0.000670569 2.08101e-006 -4.37733e-007 1.15239e-007 1.11427e-006 -1.98195e-007 -1.21852e-007 3.17159e-006 -7.35205e-007 -3.86712e-008 2.0803e-006 -4.37897e-007 1.15384e-007 7.83335 -6.97733 8.08396 79.5751 -13.1122 83.1718 -46.1876 72.8699 94.0538 68.7468 -0.405236 33.5023 -1.98754e-006 -4.99288e-007 7.27195e-008 8.12397e-007 1.79313e-007 -1.21809e-007 -1.98754e-006 -4.99288e-007 7.27195e-008 -1.98754e-006 -4.99288e-007 7.27195e-008 0.0149955 -8.97736e-005 1.3192e-006 -1.98842e-006 -4.99273e-007 7.27863e-008 -1.98754e-006 -4.99288e-007 7.27195e-008 0.0190242 -0.00119387 -5.77833e-005 -1.98866e-006 -4.99206e-007 7.28265e-008 -1.98754e-006 -4.99288e-007 7.27195e-008 0.0122611 -0.00324715 -0.000676996 -1.17432e-006 -3.20206e-007 -4.90673e-008 -1.98754e-006 -4.99288e-007 7.27195e-008 8.12397e-007 1.79313e-007 -1.21809e-007 -1.98754e-006 -4.99288e-007 7.27195e-008 167.592 -73.7189 168.731 -177.275 24.2329 168.516 13.4059 -15.9157 19.1434 6.61461e-008 -5.13369e-008 -1.20179e-006 -167.55 -73.7165 -168.691 177.289 24.2263 -168.53 -13.4098 -15.9111 -19.1461 -1.58505e-007 -1.65547e-008 1.41939e-007 
39.7392 16.8522 23.2365 3.60646e-015 64.5986 1e-006 -0.32789 16.4729 -0.0856985 -0.673619 32.946 -0.0728325 -0.67362 32.946 -0.0728322 -11.8821 -29.8116 40.2704 14.8344 -18.1168 23.2119 -7.14638 -5.97869 -4.58572 -79.6096 -13.0178 -83.2023 45.7329 71.5765 -98.7778 -70.382 -2.71339 -33.1219 1.11319e-014 1.59028e-015 -9.54166e-015 3.18055e-015 0 -9.54166e-015 -2.38542e-015 1.59028e-015 -3.18055e-015 1.11319e-014 1.59028e-015 -9.54166e-015 -0.0145632 -9.02292e-005 1.75014e-007 -1.59028e-014 4.77083e-015 3.18055e-015 1.11319e-014 1.59028e-015 -9.54166e-015 -0.0187669 -0.00117727 5.83327e-005 -9.55425e-007 -2.91735e-007 1.3485e-006 1.11319e-014 1.59028e-015 -9.54166e-015 -0.0122857 -0.00325201 0.000677917 7.95139e-016 -6.36111e-015 -3.18055e-015 1.11319e-014 1.59028e-015 -9.54166e-015 3.18055e-015 0 -9.54166e-015 -2.38542e-015 1.59028e-015 -3.18055e-015 7.88567 -7.12705 7.91076 79.5751 -13.1122 83.1718 -46.1495 72.759 94.4891 68.8644 -0.707109 33.3394 -3.16266e-006 -8.2106e-007 2.40598e-008 1.92436e-007 -7.41248e-007 2.32699e-007 -3.35509e-006 -7.98127e-008 -2.08639e-007 -3.16266e-006 -8.2106e-007 2.40598e-008 0.014944 -9.29795e-005 -1.09246e-006 -3.35496e-006 -7.98408e-008 -2.08626e-007 -3.16266e-006 -8.2106e-007 2.40598e-008 0.0190013 -0.00119109 -5.9691e-005 -3.35493e-006 -7.98595e-008 -2.08592e-007 -3.16266e-006 -8.2106e-007 2.40598e-008 0.0122696 -0.00325087 -0.000675834 -3.35499e-006 -7.98832e-008 -2.08542e-007 -3.16266e-006 -8.2106e-007 2.40598e-008 1.92436e-007 -7.41248e-007 2.32699e-007 -3.35509e-006 -7.98127e-008 -2.08639e-007 167.59 -73.7222 168.729 -177.274 24.2359 168.516 13.4057 -15.9161 19.1433 -4.13804e-033 -7.95139e-016 -2.98177e-016 -167.554 -73.7112 -168.695 177.289 24.2206 -168.53 -13.4095 -15.9114 -19.146 2.2213e-007 6.78425e-008 -1.34415e-006 
39.7392 16.8343 23.2108 1.74875e-013 64.3735 1e-006 -0.32808 16.5479 -0.0851512 -0.674527 33.0961 -0.0710428 -0.674526 33.096 -0.0710431 -12.1461 -29.837 40.1309 14.6563 -17.8879 23.0934 -7.13906 -5.96089 -4.58448 -79.6096 -13.0178 -83.2023 45.7121 71.5422 -98.9406 -70.4029 -2.89473 -32.9786 -4.37326e-015 3.18055e-015 -0 -9.59568e-007 -3.07188e-007 1.34851e-006 9.5973e-007 -3.08117e-007 2.04441e-007 -4.37326e-015 3.18055e-015 -0 -0.0146184 -8.86393e-005 -4.84641e-006 9.61574e-007 -3.08132e-007 2.04402e-007 -4.37326e-015 3.18055e-015 -0 -0.018744 -0.00117559 6.20613e-005 9.62096e-007 -3.08003e-007 2.04373e-007 -4.37326e-015 3.18055e-015 -0 -0.0122228 -0.00323701 0.00067513 1.19271e-014 -3.18055e-015 3.18055e-015 -4.37326e-015 3.18055e-015 -0 -9.59568e-007 -3.07188e-007 1.34851e-006 9.5973e-007 -3.08117e-007 2.04441e-007 7.93755 -7.27692 7.73765 79.5751 -13.1122 83.1718 -46.1088 72.6482 94.9217 68.9811 -1.00929 33.1772 -3.35549e-006 -8.16382e-008 -2.07886e-007 1.92862e-007 -7.4124e-007 2.32369e-007 -3.35549e-006 -8.16382e-008 -2.07886e-007 -3.35549e-006 -8.16382e-008 -2.07886e-007 0.0149556 -9.06558e-005 -1.05275e-006 -3.35536e-006 -8.16662e-008 -2.07873e-007 -3.35549e-006 -8.16382e-008 -2.07886e-007 0.0190077 -0.0011941 -5.96616e-005 -2.55101e-006 8.76051e-008 -3.4327e-007 -3.35549e-006 -8.16382e-008 -2.07886e-007 0.0122805 -0.00325435 -0.000672905 -3.35538e-006 -8.17085e-008 -2.07788e-007 -3.35549e-006 -8.16382e-008 -2.07886e-007 1.92862e-007 -7.4124e-007 2.32369e-007 -3.35549e-006 -8.16382e-008 -2.07886e-007 167.594 -73.7169 168.733 -177.275 24.2302 168.516 13.4054 -15.9164 19.1432 -7.95139e-016 0 -1.49089e-015 -167.553 -73.7142 -168.693 177.289 24.2234 -168.53 -13.4093 -15.9117 -19.1459 -1.57946e-007 -1.654e-008 1.4256e-007 
